<svg viewBox="0 0 13 21" fill="none" xmlns="http://www.w3.org/2000/svg">
<path d="M7.42957 13.6007V9.04811C7.42957 8.79551 7.33075 8.55325 7.15486 8.37464C6.97896 8.19602 6.74039 8.09568 6.49163 8.09568C6.24287 8.09568 6.0043 8.19602 5.8284 8.37464C5.6525 8.55325 5.55369 8.79551 5.55369 9.04811V13.6007C5.27017 13.7669 5.03442 14.0056 4.86988 14.293C4.70533 14.5804 4.61772 14.9065 4.61574 15.2389C4.61574 15.7441 4.81338 16.2286 5.16518 16.5859C5.51697 16.9431 5.99411 17.1438 6.49163 17.1438C6.98915 17.1438 7.46629 16.9431 7.81808 16.5859C8.16988 16.2286 8.36752 15.7441 8.36752 15.2389C8.36554 14.9065 8.27793 14.5804 8.11338 14.293C7.94884 14.0056 7.71309 13.7669 7.42957 13.6007ZM10.7124 11.4292V4.28595C10.7124 3.14924 10.2677 2.0591 9.47615 1.25532C8.68461 0.451554 7.61104 0 6.49163 0C5.37222 0 4.29865 0.451554 3.50711 1.25532C2.71557 2.0591 2.27088 3.14924 2.27088 4.28595V11.4292C1.62261 12.1751 1.17736 13.08 0.979155 14.0543C0.780953 15.0286 0.836672 16.0386 1.1408 16.9843C1.44493 17.93 1.98693 18.7788 2.7132 19.4465C3.43946 20.1143 4.32481 20.5779 5.28168 20.7916C5.67917 20.8836 6.08424 20.9378 6.49163 20.9535C7.58023 20.9587 8.64694 20.6431 9.56247 20.045C10.478 19.447 11.2031 18.5921 11.6498 17.5841C12.0965 16.576 12.2458 15.458 12.0794 14.3656C11.913 13.2731 11.4381 12.2531 10.7124 11.4292ZM8.83649 18.1629C8.09022 18.8348 7.11165 19.1782 6.11606 19.1174C5.12047 19.0567 4.18942 18.5969 3.52773 17.8391C2.86603 17.0813 2.52789 16.0876 2.5877 15.0766C2.6475 14.0656 3.10035 13.1202 3.84663 12.4483C3.93525 12.3601 4.00576 12.2549 4.05406 12.1388C4.10236 12.0227 4.12749 11.8981 4.12801 11.7721V4.28595C4.12801 3.65444 4.37506 3.04881 4.8148 2.60227C5.25455 2.15573 5.85097 1.90487 6.47287 1.90487C7.09477 1.90487 7.69119 2.15573 8.13094 2.60227C8.57068 3.04881 8.81773 3.65444 8.81773 4.28595V11.8483C8.81825 11.9743 8.84338 12.0989 8.89168 12.215C8.93999 12.3311 9.01049 12.4363 9.09911 12.5245C9.4825 12.9006 9.78256 13.3553 9.9793 13.8584C10.176 14.3615 10.265 14.9014 10.2401 15.4421C10.2153 15.9828 10.0772 16.5119 9.83519 16.9942C9.59316 17.4765 9.2527 17.9009 8.83649 18.2391V18.1629Z" fill="#DFA1A1"/>
</svg>
