<svg  viewBox="0 0 13 22" fill="none" xmlns="http://www.w3.org/2000/svg">
<path d="M7.42957 14.5543V10.0017C7.42957 9.74909 7.33075 9.50684 7.15486 9.32822C6.97896 9.14961 6.74039 9.04926 6.49163 9.04926C6.24287 9.04926 6.0043 9.14961 5.8284 9.32822C5.6525 9.50684 5.55369 9.74909 5.55369 10.0017V14.5543C5.27017 14.7205 5.03442 14.9592 4.86988 15.2466C4.70533 15.534 4.61772 15.8601 4.61574 16.1925C4.61574 16.6977 4.81338 17.1822 5.16518 17.5394C5.51697 17.8967 5.99411 18.0974 6.49163 18.0974C6.98915 18.0974 7.46629 17.8967 7.81808 17.5394C8.16988 17.1822 8.36752 16.6977 8.36752 16.1925C8.36554 15.8601 8.27793 15.534 8.11338 15.2466C7.94884 14.9592 7.71309 14.7205 7.42957 14.5543ZM10.7124 12.3828V5.23953C10.7124 4.10283 10.2677 3.01268 9.47615 2.20891C8.68461 1.40514 7.61104 0.953583 6.49163 0.953583C5.37222 0.953583 4.29865 1.40514 3.50711 2.20891C2.71557 3.01268 2.27088 4.10283 2.27088 5.23953V12.3828C1.62261 13.1287 1.17736 14.0336 0.979155 15.0079C0.780953 15.9822 0.836672 16.9922 1.1408 17.9379C1.44493 18.8836 1.98693 19.7323 2.7132 20.4001C3.43946 21.0678 4.32481 21.5315 5.28168 21.7452C5.67917 21.8372 6.08424 21.8914 6.49163 21.9071C7.58023 21.9122 8.64694 21.5967 9.56247 20.9986C10.478 20.4006 11.2031 19.5457 11.6498 18.5376C12.0965 17.5296 12.2458 16.4116 12.0794 15.3191C11.913 14.2267 11.4381 13.2067 10.7124 12.3828ZM8.83649 19.1165C8.09022 19.7884 7.11165 20.1318 6.11606 20.071C5.12047 20.0103 4.18942 19.5504 3.52773 18.7926C2.86603 18.0348 2.52789 17.0412 2.5877 16.0302C2.6475 15.0192 3.10035 14.0738 3.84663 13.4019C3.93525 13.3137 4.00576 13.2085 4.05406 13.0924C4.10236 12.9763 4.12749 12.8517 4.12801 12.7256V5.23953C4.12801 4.60803 4.37506 4.00239 4.8148 3.55585C5.25455 3.10931 5.85097 2.85845 6.47287 2.85845C7.09477 2.85845 7.69119 3.10931 8.13094 3.55585C8.57068 4.00239 8.81773 4.60803 8.81773 5.23953V12.8018C8.81825 12.9279 8.84338 13.0525 8.89168 13.1686C8.93999 13.2847 9.01049 13.3899 9.09911 13.4781C9.4825 13.8542 9.78256 14.3089 9.9793 14.812C10.176 15.3151 10.265 15.8549 10.2401 16.3957C10.2153 16.9364 10.0772 17.4655 9.83519 17.9478C9.59316 18.4301 9.2527 18.8545 8.83649 19.1927V19.1165Z" fill="#6D97CA"/>
</svg>
