<svg viewBox="0 0 22 21" fill="none" xmlns="http://www.w3.org/2000/svg">
<g clip-path="url(#clip0_128_5053)">
<path d="M15.2308 8.88461C15.2308 7.32812 14.6512 5.99669 13.4922 4.89032C12.3331 3.78395 10.9383 3.23077 9.30769 3.23077C7.67708 3.23077 6.28225 3.78395 5.1232 4.89032C3.96414 5.99669 3.38462 7.32812 3.38462 8.88461C3.38462 10.4411 3.96414 11.7725 5.1232 12.8789C6.28225 13.9853 7.67708 14.5385 9.30769 14.5385C10.9383 14.5385 12.3331 13.9853 13.4922 12.8789C14.6512 11.7725 15.2308 10.4411 15.2308 8.88461ZM22 19.3846C22 19.8221 21.8325 20.2007 21.4976 20.5204C21.1627 20.8401 20.766 21 20.3077 21C19.8317 21 19.4351 20.8401 19.1178 20.5204L14.5829 16.2043C13.0052 17.2476 11.2468 17.7692 9.30769 17.7692C8.04728 17.7692 6.84195 17.5358 5.69171 17.0688C4.54147 16.6019 3.54988 15.9709 2.71695 15.1758C1.88401 14.3807 1.22296 13.4342 0.733774 12.3362C0.244591 11.2383 0 10.0877 0 8.88461C0 7.68149 0.244591 6.53095 0.733774 5.43299C1.22296 4.33504 1.88401 3.38852 2.71695 2.59345C3.54988 1.79838 4.54147 1.16737 5.69171 0.700421C6.84195 0.233474 8.04728 0 9.30769 0C10.5681 0 11.7734 0.233474 12.9237 0.700421C14.0739 1.16737 15.0655 1.79838 15.8984 2.59345C16.7314 3.38852 17.3924 4.33504 17.8816 5.43299C18.3708 6.53095 18.6154 7.68149 18.6154 8.88461C18.6154 10.7356 18.0689 12.4141 16.976 13.9201L21.5108 18.2488C21.8369 18.5601 22 18.9387 22 19.3846Z" fill="white"/>
</g>
<defs>
<clipPath id="clip0_128_5053">
<rect width="22" height="21" fill="white"/>
</clipPath>
</defs>
</svg>
