<svg  viewBox="0 0 16 21" fill="none" xmlns="http://www.w3.org/2000/svg">
<path fill-rule="evenodd" clip-rule="evenodd" d="M13.5337 14.0949C13.5337 16.3653 11.2664 18.6371 7.89232 18.6371C4.51821 18.6371 2.25097 16.3653 2.25097 14.0949C2.25097 11.7398 3.78268 8.80699 5.58301 6.2538C6.39672 5.09981 7.21338 4.0946 7.852 3.35203C8.50278 4.15263 9.34721 5.24244 10.1886 6.47237C11.0658 7.75475 11.9191 9.1595 12.5478 10.5267C13.188 11.9189 13.5337 13.1413 13.5337 14.0949ZM0.63916 14.0949C0.63916 9.7133 4.77445 4.42976 6.80014 2.10445C7.45721 1.35018 7.89232 0.907166 7.89232 0.907166C7.89232 0.907166 8.30917 1.36796 8.94299 2.13984C10.9531 4.58774 15.1455 10.1644 15.1455 14.0949C15.1455 17.4937 11.8981 20.2489 7.89232 20.2489C3.88651 20.2489 0.63916 17.4937 0.63916 14.0949ZM4.2644 11.384H5.99837C5.67212 12.1286 5.4746 12.8347 5.4746 13.4354C5.4746 14.3578 6.37692 15.4135 7.89232 15.4135V17.0253C5.66687 17.0253 3.86279 15.4181 3.86279 13.4354C3.86279 12.7738 4.01672 12.077 4.2644 11.384Z" fill="white"/>
</svg>
